<svg width="190" height="190" viewBox="0 0 190 190" fill="none" xmlns="http://www.w3.org/2000/svg">
<circle cx="95" cy="95" r="95" fill="#FF0000"/>
<path d="M50 97.5L95 61L140 97.5V123C140 128.523 135.523 133 130 133H107V103H83V133H60C54.4772 133 50 128.523 50 123V97.5Z" fill="white"/>
<path d="M41.7578 94.2879C40.876 92.6313 41.2899 90.5823 42.7456 89.3979L90.3226 50.6863C90.9328 50.1898 91.6182 49.7935 92.3531 49.5125V49.5125C94.0574 48.8606 95.9434 48.8607 97.648 49.5119V49.5119C98.3842 49.7932 99.0713 50.1902 99.6827 50.6877L147.255 89.398C148.71 90.5825 149.124 92.6314 148.242 94.288V94.288C147.081 96.4699 144.216 97.0485 142.299 95.4884L94.9998 57.0002L47.7012 95.4883C45.784 97.0484 42.9193 96.4698 41.7578 94.2879V94.2879Z" fill="white"/>
<path d="M116 52.5H132V77L116 64V52.5Z" fill="white"/>
</svg>
