<svg width="524" height="194" viewBox="0 0 524 194" fill="none" xmlns="http://www.w3.org/2000/svg">
<path fill-rule="evenodd" clip-rule="evenodd" d="M1 1H45.4666L262.334 87.9266L478.533 1H523L412.156 47.6708L286.875 97.7633L523 192.409H475.311L262.411 107.545L48.6889 193H1L237.87 97.7625L111.844 47.5272L1 1Z" fill="#FFD873"/>
<path d="M45.4666 1L45.6527 0.535894L45.5631 0.5H45.4666V1ZM1 1V0.5L0.806481 1.46103L1 1ZM262.334 87.9266L262.148 88.3907L262.334 88.4654L262.52 88.3905L262.334 87.9266ZM478.533 1V0.5H478.437L478.347 0.536093L478.533 1ZM523 1L523.194 1.46082L523 0.5V1ZM412.156 47.6708L412.341 48.1351L412.35 48.1316L412.156 47.6708ZM286.875 97.7633L286.689 97.2991L285.529 97.7628L286.689 98.2274L286.875 97.7633ZM523 192.409V192.909L523.186 191.945L523 192.409ZM475.311 192.409L475.126 192.874L475.215 192.909H475.311V192.409ZM262.411 107.545L262.596 107.08L262.411 107.006L262.226 107.081L262.411 107.545ZM48.6889 193V193.5H48.7851L48.8745 193.464L48.6889 193ZM1 193L0.813479 192.536L1 193.5V193ZM237.87 97.7625L238.057 98.2264L239.216 97.7605L238.055 97.2981L237.87 97.7625ZM111.844 47.5272L111.651 47.9883L111.659 47.9916L111.844 47.5272ZM45.4666 0.5H1V1.5H45.4666V0.5ZM262.52 87.4625L45.6527 0.535894L45.2806 1.46411L262.148 88.3907L262.52 87.4625ZM262.52 88.3905L478.72 1.46391L478.347 0.536093L262.147 87.4627L262.52 88.3905ZM478.533 1.5H523V0.5H478.533V1.5ZM522.806 0.539181L411.962 47.21L412.35 48.1316L523.194 1.46082L522.806 0.539181ZM411.97 47.2065L286.689 97.2991L287.06 98.2276L412.341 48.135L411.97 47.2065ZM523.186 191.945L287.061 97.2992L286.689 98.2274L522.814 192.873L523.186 191.945ZM475.311 192.909H523V191.909H475.311V192.909ZM262.226 108.009L475.126 192.874L475.496 191.945L262.596 107.08L262.226 108.009ZM262.226 107.081L48.5033 192.536L48.8745 193.464L262.597 108.009L262.226 107.081ZM48.6889 192.5H1V193.5H48.6889V192.5ZM1.18652 193.464L238.057 98.2264L237.684 97.2986L0.813479 192.536L1.18652 193.464ZM111.659 47.9916L237.685 98.227L238.055 97.2981L112.03 47.0627L111.659 47.9916ZM0.806481 1.46103L111.651 47.9882L112.038 47.0661L1.19352 0.538968L0.806481 1.46103Z" fill="black"/>
</svg>
